HIERARCHY
ROOT Hips
{
	OFFSET 193.743393 91.357132 495.993408
	CHANNELS 6 Xposition Yposition Zposition Zrotation Yrotation Xrotation 
	JOINT LeftUpLeg
	{
		OFFSET 0.103456 1.857829 10.548507
		CHANNELS 3 Zrotation Yrotation Xrotation
		JOINT LeftLeg
		{
			OFFSET 43.500000 -0.000031 0.000008
			CHANNELS 3 Zrotation Yrotation Xrotation
			JOINT LeftFoot
			{
				OFFSET 42.372200 0.000015 -0.000002
				CHANNELS 3 Zrotation Yrotation Xrotation
				JOINT LeftToe
				{
					OFFSET 17.299992 -0.000004 0.000000
					CHANNELS 3 Zrotation Yrotation Xrotation
					End Site
					{
						OFFSET 0.000000 0.000000 0.000000
					}
				}
			}
		}
	}
	JOINT RightUpLeg
	{
		OFFSET 0.103460 1.857824 -10.548508
		CHANNELS 3 Zrotation Yrotation Xrotation
		JOINT RightLeg
		{
			OFFSET 43.500042 -0.000019 0.000004
			CHANNELS 3 Zrotation Yrotation Xrotation
			JOINT RightFoot
			{
				OFFSET 42.372265 -0.000019 0.000016
				CHANNELS 3 Zrotation Yrotation Xrotation
				JOINT RightToe
				{
					OFFSET 17.299999 -0.000001 -0.000006
					CHANNELS 3 Zrotation Yrotation Xrotation
					End Site
					{
						OFFSET 0.000000 0.000000 0.000000
					}
				}
			}
		}
	}
	JOINT Spine
	{
		OFFSET 6.901965 -2.603734 0.000001
		CHANNELS 3 Zrotation Yrotation Xrotation
		JOINT Spine1
		{
			OFFSET 12.588102 0.000006 -0.000006
			CHANNELS 3 Zrotation Yrotation Xrotation
			JOINT Spine2
			{
				OFFSET 12.343201 -0.000002 0.000010
				CHANNELS 3 Zrotation Yrotation Xrotation
				JOINT Neck
				{
					OFFSET 25.832899 -0.000004 -0.000009
					CHANNELS 3 Zrotation Yrotation Xrotation
					JOINT Head
					{
						OFFSET 11.766603 0.000001 0.000007
						CHANNELS 3 Zrotation Yrotation Xrotation
						End Site
						{
							OFFSET 0.000000 0.000000 0.000000
						}
					}
				}
				JOINT LeftShoulder
				{
					OFFSET 19.745899 -1.480371 6.000098
					CHANNELS 3 Zrotation Yrotation Xrotation
					JOINT LeftArm
					{
						OFFSET 11.284129 -0.000011 -0.000015
						CHANNELS 3 Zrotation Yrotation Xrotation
						JOINT LeftForeArm
						{
							OFFSET 33.000046 0.000011 0.000030
							CHANNELS 3 Zrotation Yrotation Xrotation
							JOINT LeftHand
							{
								OFFSET 25.200010 0.000012 -0.000000
								CHANNELS 3 Zrotation Yrotation Xrotation
								End Site
								{
									OFFSET 0.000000 0.000000 0.000000
								}
							}
						}
					}
				}
				JOINT RightShoulder
				{
					OFFSET 19.746092 -1.480375 -6.000075
					CHANNELS 3 Zrotation Yrotation Xrotation
					JOINT RightArm
					{
						OFFSET 11.284135 -0.000010 -0.000014
						CHANNELS 3 Zrotation Yrotation Xrotation
						JOINT RightForeArm
						{
							OFFSET 33.000092 0.000016 0.000013
							CHANNELS 3 Zrotation Yrotation Xrotation
							JOINT RightHand
							{
								OFFSET 25.199780 0.000135 0.000426
								CHANNELS 3 Zrotation Yrotation Xrotation
								End Site
								{
									OFFSET 0.000000 0.000000 0.000000
								}
							}
						}
					}
				}
			}
		}
	}
}
MOTION
Frames: 10
Frame Time: 0.033333
-40.558521 78.55912 -32.401112 93.98537 -3.776257 135.2999 140.770936 6.6225 164.571905 -59.314633 -3.134269 -5.985869 88.403801 5.708449 9.333637 21.45455 0.003086 -0.0 152.113531 3.486205 -175.796215 -105.800197 -4.394209 2.101505 73.313714 -0.180509 3.421759 21.454551 -0.003113 -1.5e-05 13.004071 -1.47424 1.412272 15.965468 -3.129381 2.608105 15.647221 -3.113439 2.626962 9.48112 -8.012716 -4.932974 -14.329542 11.871787 -9.897265 176.813763 -68.659725 1.928245 14.578462 59.242739 18.463767 -97.993482 -2.314718 2.822324 -9.760398 -25.63205 26.401471 173.647956 69.229698 -5.219718 -28.247089 -59.503556 20.751522 -100.923695 1.430783 -2.935765 -29.966666 17.750716 -50.170096 
-38.28896 78.361656 -29.850691 96.027931 -3.084844 137.808984 144.605405 8.73101 166.192504 -60.576661 -3.208687 -5.814471 91.07599 5.291607 9.007149 21.454551 0.00309 -0.0 144.545941 2.544696 -178.436397 -117.822703 -5.017587 6.385926 75.033733 -3.514669 2.531289 21.454548 -0.003112 -1.4e-05 13.162579 -1.560578 1.034435 16.292622 -3.251303 1.839092 15.974163 -3.240007 1.858712 8.546328 -7.869344 -2.976239 -18.825181 11.181833 -8.199867 174.481007 -69.144416 4.324588 3.651251 59.370832 5.867571 -97.306461 -2.316125 2.791886 -12.136611 -25.17402 26.691362 173.238022 69.290691 -5.640813 -24.440847 -59.367506 18.405645 -100.691004 1.474398 -2.928425 -35.225041 18.738856 -53.610606 
-36.36422 79.342827 -27.34774 96.253669 -2.03929 141.436497 148.728817 9.780398 168.96817 -59.29236 -2.602162 -5.076958 92.232853 4.641728 8.754679 21.454551 0.003092 -1e-06 137.188612 0.970402 -179.248807 -123.961499 -5.43147 10.151931 75.926411 -6.283205 2.203075 21.454562 -0.003113 -1.8e-05 13.060164 -1.205279 0.524511 16.101717 -2.471821 0.876095 15.783346 -2.466361 0.891032 5.387103 -7.088812 -0.176584 -23.610666 9.755928 -5.337578 170.855584 -70.704418 8.013916 -3.933507 53.202321 -2.647366 -97.533209 -2.625673 2.823586 -16.551381 -27.053782 32.596859 174.34704 69.275508 -4.497998 -19.840171 -53.682155 15.57599 -103.849516 0.627919 -3.009977 -39.327116 17.204727 -57.618485 
-34.530918 81.362022 -25.038321 95.911422 -0.440862 145.122327 154.068919 9.420499 172.094416 -55.257965 -2.232092 -3.802852 91.888543 3.822928 8.858211 21.45455 0.003092 -0.0 131.541234 -0.1114 -179.939585 -124.071411 -5.538463 11.272598 77.056002 -7.397393 1.097376 21.454551 -0.003108 -1.5e-05 12.851519 -0.64161 0.09643 15.690575 -1.290368 0.104845 15.372405 -1.289585 0.112646 2.469132 -5.137021 2.21923 -29.010026 8.074189 -2.450431 168.803235 -73.844816 10.014585 -6.94882 46.290248 -9.200096 -98.777472 -2.585609 2.876072 -21.789651 -28.938808 36.619629 178.395976 70.312303 -0.29859 -16.723124 -45.600348 15.999266 -109.736394 -0.496934 -3.190553 -39.873019 19.647831 -57.102857 
-32.582581 84.391853 -22.966299 94.761198 0.428561 147.782413 159.901258 8.662403 175.025715 -47.380981 -2.019079 -2.754117 89.66339 3.295466 8.806733 21.454548 0.003089 -1e-06 127.195348 -0.771198 178.491612 -118.990092 -5.320357 10.241684 77.652694 -6.875377 0.454075 21.454551 -0.003111 -1.8e-05 12.222386 -0.122482 -0.210187 14.432376 -0.21781 -0.434023 14.114279 -0.220289 -0.432688 -1.074958 -3.737607 4.11 -30.429469 7.618863 -0.281644 168.34859 -77.863569 10.338353 -6.527061 40.149471 -15.178687 -100.356407 -2.379463 2.931729 -25.722199 -32.502039 39.310519 -174.287986 73.029714 7.264694 -14.974691 -37.533197 21.772193 -115.724305 -1.596656 -3.371052 -38.33416 23.639085 -54.523061 
-30.385521 87.727989 -20.91329 92.94712 1.345526 149.524507 166.435577 8.034303 -179.185601 -36.533668 -2.022024 -3.979865 85.972329 4.23515 7.724249 21.45455 0.003091 -1e-06 125.438009 -1.756393 177.442167 -109.724394 -4.894335 9.26873 76.529688 -6.259145 0.428738 21.454558 -0.003103 -1.7e-05 11.257009 0.454619 -0.324397 12.499139 0.941566 -0.59774 12.181012 0.938077 -0.603404 -3.260507 -1.496927 5.190203 -30.072394 6.376597 1.883462 171.330678 -82.069244 7.175736 -4.862151 33.544131 -20.718737 -101.014611 -2.135016 2.943828 -28.143494 -34.807819 41.243411 -162.470967 76.029984 19.364923 -13.813769 -29.057039 30.618348 -119.034201 -2.116393 -3.473184 -37.313658 26.611493 -53.777645 
-27.87155 90.436256 -18.77494 90.403592 2.382872 150.954407 172.360425 7.928803 -170.623549 -26.789962 0.002152 -7.317183 85.386585 6.08916 5.566993 21.45455 0.003089 -1e-06 125.6813 -2.905504 176.807315 -98.283752 -4.038396 7.629133 75.993006 -5.291973 -0.050783 21.454555 -0.00311 -1.8e-05 9.918179 1.144312 -0.365205 9.819127 2.315383 -0.632079 9.500771 2.311662 -0.646053 -4.579788 0.387924 5.450192 -27.679044 5.15313 3.278129 -173.982294 -86.511873 -7.722289 -3.491816 26.105914 -25.305125 -99.001297 -2.452284 2.8767 -30.222641 -33.353241 44.548403 -145.688003 79.137297 36.388403 -12.502923 -20.008628 40.109699 -117.693708 -2.199755 -3.411982 -34.44504 29.421422 -49.711486 
-25.120449 92.082977 -16.69268 88.505257 2.204397 152.550472 175.534714 8.359404 -161.338589 -24.828591 -0.733636 -5.174278 86.03046 4.232493 3.39698 21.454551 0.003084 -1e-06 127.199132 -2.921208 174.552697 -86.386231 -2.713479 4.574611 76.360975 -3.229762 -0.241386 21.454551 -0.003111 -1.9e-05 8.472375 1.435357 -0.45648 6.923643 2.895294 -0.82675 6.605143 2.890386 -0.844227 -5.406214 3.338222 5.003766 -25.139362 3.195139 4.491495 -74.343139 -88.956951 -107.505572 -3.294384 15.121214 -28.416982 -92.666502 -3.636917 2.677834 -29.687827 -31.874061 48.365594 -117.146009 80.876973 65.18361 -12.399425 -10.875475 47.597143 -110.431393 -1.280451 -3.166461 -29.745528 29.493662 -45.919731 
-22.478109 92.20092 -14.57139 88.194305 2.828899 154.742375 177.846897 7.515594 -159.115595 -29.134571 -4.194478 2.025877 79.906315 -2.219462 -3.716295 21.45455 0.003085 -2e-06 131.160054 -2.97591 171.906846 -74.447867 -1.703638 1.13714 77.036324 -0.666747 0.281152 21.454562 -0.003108 -1.6e-05 7.51745 1.509356 -0.499125 5.011428 3.038689 -0.933197 4.692909 3.033126 -0.951537 -6.198143 7.931635 3.573884 -23.019117 0.094309 5.503913 13.588933 -86.191469 164.601808 -3.757208 0.770454 -24.138881 -80.618273 -11.187887 2.675835 -26.155392 -29.640869 48.024973 -97.414521 81.338592 85.013978 -11.511533 0.493102 51.302487 -97.344621 1.797177 -2.801308 -25.556746 24.678676 -45.565855 
-19.804831 91.575783 -12.23389 88.852176 4.51777 157.28699 -177.83657 5.061098 -162.86317 -31.523871 -5.422761 6.275318 71.247998 -4.420273 -0.189384 21.454555 0.003091 -0.0 137.786431 -3.788605 168.361718 -61.44292 -0.679243 -1.285077 77.249296 1.150673 0.699487 21.454557 -0.00311 -1.8e-05 7.032652 1.697257 -0.578712 4.037871 3.413379 -1.098968 3.719203 3.406824 -1.11958 -9.955008 10.741774 1.889359 -17.972333 -1.455401 5.331956 19.276534 -79.204656 159.08001 -5.180186 -9.835443 -15.33859 -62.26382 -19.29599 2.479777 -12.462441 -25.025118 39.360686 -64.123844 80.710453 118.343764 -11.695265 9.670511 43.189858 -79.345194 14.822019 -2.915214 -19.722031 19.100595 -44.396062 
